<svg width="177" height="54" viewBox="0 0 177 54" fill="none" xmlns="http://www.w3.org/2000/svg">
<g clip-path="url(#clip0_847_6366)">
<path d="M26.76 42.33H0V0H7.7V35.67H20.1C20.9746 35.67 21.8406 35.8423 22.6487 36.177C23.4567 36.5117 24.1909 37.0022 24.8093 37.6207C25.4278 38.2391 25.9183 38.9733 26.253 39.7813C26.5877 40.5894 26.76 41.4554 26.76 42.33Z" fill="url(#paint0_linear_847_6366)"/>
<path d="M118.31 26.3901C118.316 28.6676 117.979 30.933 117.31 33.1101C116.747 35.0179 115.824 36.8001 114.59 38.3601C113.406 39.8358 111.887 41.0082 110.16 41.7801C108.274 42.6239 106.226 43.0437 104.16 43.0101C102.755 43.0204 101.354 42.8353 100 42.4601C98.9219 42.1637 97.8792 41.7513 96.89 41.2301V46.2301C96.89 48.1901 96.1114 50.0697 94.7255 51.4556C93.3396 52.8415 91.46 53.6201 89.5 53.6201V16.8201C89.4996 15.2469 90.057 13.7244 91.0732 12.5233C92.0893 11.3223 93.4984 10.5204 95.05 10.2601C97.3645 9.88707 99.7056 9.70312 102.05 9.71012C104.362 9.67539 106.661 10.0687 108.83 10.8701C110.75 11.6007 112.489 12.7365 113.93 14.2001C115.37 15.7045 116.474 17.4973 117.17 19.4601C117.954 21.6852 118.34 24.0311 118.31 26.3901ZM110.73 26.5101C110.73 23.2101 109.99 20.6501 108.5 18.8101C107.01 16.9701 104.62 16.0701 101.33 16.0701C100.63 16.0701 99.91 16.0701 99.16 16.1601C98.406 16.2196 97.6594 16.3501 96.93 16.5501V34.8201C97.7371 35.3445 98.6073 35.7646 99.52 36.0701C100.627 36.4631 101.795 36.6594 102.97 36.6501C105.66 36.6501 107.63 35.7401 108.87 33.9001C110.214 31.6779 110.862 29.104 110.73 26.5101Z" fill="url(#paint1_linear_847_6366)"/>
<path d="M120.67 26.5098C120.621 23.9901 121.045 21.4835 121.92 19.1198C122.665 17.1515 123.797 15.3527 125.25 13.8298C126.595 12.4533 128.213 11.3735 130 10.6598C131.745 9.957 133.608 9.59383 135.49 9.58984C139.89 9.58984 143.323 10.9532 145.79 13.6798C148.256 16.4065 149.493 20.4798 149.5 25.8998C149.5 26.3132 149.5 26.7732 149.5 27.2798C149.5 27.7898 149.45 28.2798 149.41 28.6498H128.31C128.338 29.7802 128.592 30.8934 129.058 31.9239C129.523 32.9544 130.19 33.8813 131.02 34.6498C132.626 36.0498 134.96 36.7498 138.02 36.7498C139.673 36.7654 141.322 36.6011 142.94 36.2598C144.137 36.0306 145.311 35.6959 146.45 35.2598L147.45 41.2598C146.907 41.5186 146.345 41.7359 145.77 41.9098C145.05 42.1298 144.24 42.3298 143.32 42.5198C142.4 42.7098 141.42 42.8498 140.32 42.9698C139.245 43.0991 138.163 43.1625 137.08 43.1598C134.579 43.2123 132.092 42.788 129.75 41.9098C127.795 41.1541 126.04 39.9602 124.62 38.4198C123.254 36.9055 122.231 35.1149 121.62 33.1698C120.956 31.0134 120.635 28.7659 120.67 26.5098ZM142.11 23.2098C142.116 22.2269 141.971 21.2488 141.68 20.3098C141.425 19.4416 141 18.6327 140.43 17.9298C139.885 17.2624 139.203 16.7201 138.43 16.3398C137.54 15.9319 136.568 15.7334 135.59 15.7598C134.553 15.7357 133.526 15.9549 132.59 16.3998C131.763 16.8112 131.025 17.3822 130.42 18.0798C129.807 18.7809 129.325 19.5873 129 20.4598C128.675 21.3487 128.45 22.2711 128.33 23.2098H142.11Z" fill="url(#paint2_linear_847_6366)"/>
<path d="M151.871 26.3897C151.85 24.1327 152.222 21.8892 152.971 19.7597C153.653 17.786 154.72 15.9674 156.111 14.4097C157.51 12.891 159.213 11.6847 161.111 10.8697C163.199 9.9916 165.446 9.55576 167.711 9.58973C170.641 9.57437 173.546 10.135 176.261 11.2397L174.671 17.2397C173.734 16.8459 172.763 16.538 171.771 16.3197C170.63 16.0811 169.466 15.9737 168.301 15.9997C167.067 15.9176 165.83 16.1192 164.686 16.5889C163.542 17.0587 162.521 17.7841 161.701 18.7097C160.194 20.5231 159.441 23.0797 159.441 26.3797C159.29 29.0617 160.043 31.7168 161.581 33.9197C163.011 35.7797 165.411 36.6997 168.791 36.6997C170.039 36.7008 171.285 36.5802 172.511 36.3397C173.597 36.1349 174.662 35.8269 175.691 35.4197L176.691 41.5297C175.508 42.0486 174.265 42.4181 172.991 42.6297C171.311 42.961 169.603 43.1251 167.891 43.1197C165.462 43.1727 163.046 42.748 160.781 41.8697C158.869 41.1036 157.159 39.9097 155.781 38.3797C154.411 36.8459 153.387 35.0347 152.781 33.0697C152.138 30.9026 151.831 28.6498 151.871 26.3897Z" fill="url(#paint3_linear_847_6366)"/>
<path d="M63.2398 19.8999L61.7098 20.7599C60 21.712 58.0673 22.1908 56.1108 22.1469C54.1543 22.1029 52.245 21.5378 50.5798 20.5099L47.5798 18.6099C46.1511 17.7074 44.5104 17.1964 42.8219 17.1279C41.1335 17.0595 39.4568 17.436 37.9598 18.2199C36.0465 19.1497 34.531 20.7361 33.6898 22.6899C33.2816 23.6229 33.0477 24.6227 32.9998 25.6399C32.9852 25.883 32.9852 26.1268 32.9998 26.3699C32.9848 26.6197 32.9848 26.8701 32.9998 27.1199C33.0987 28.6818 33.6002 30.1915 34.4553 31.5022C35.3104 32.8129 36.4901 33.8801 37.8798 34.5999C39.3573 35.4049 41.015 35.8217 42.6975 35.8112C44.3801 35.8007 46.0324 35.3633 47.4998 34.5399L47.9998 35.4599L48.5298 36.3799L49.9998 38.9999L50.5298 39.9199L51.0298 40.8099C48.4713 42.2598 45.5805 43.0213 42.6398 43.0199C39.775 43.0072 36.958 42.2858 34.4398 40.9199C31.9827 39.6147 29.8972 37.7069 28.379 35.3754C26.8608 33.0438 25.9596 30.365 25.7598 27.5899C25.7598 27.1699 25.7598 26.7599 25.7598 26.3399C25.7598 25.9199 25.7598 25.5299 25.7598 25.1099C25.8403 24.0598 26.0144 23.019 26.2798 21.9999C27.2052 18.6198 29.2148 15.6371 31.9998 13.5099L32.2998 13.2899C34.345 11.7709 36.713 10.7443 39.2198 10.2899C43.6528 9.50265 48.2194 10.4246 51.9998 12.8699L63.2398 19.8999Z" fill="url(#paint4_linear_847_6366)"/>
<path d="M85.1299 26.5598C85.1549 26.9794 85.1549 27.4002 85.1299 27.8198C85.071 28.8742 84.9034 29.9197 84.6299 30.9398C83.7212 34.3119 81.7289 37.2916 78.9599 39.4198L78.6599 39.6398C76.6203 41.1821 74.2522 42.2328 71.7399 42.7098C67.2815 43.5156 62.6842 42.5661 58.9099 40.0598L47.6699 33.0598L49.1999 32.1698C50.906 31.2136 52.8382 30.735 54.7934 30.7842C56.7485 30.8335 58.6542 31.4089 60.3099 32.4498L63.3099 34.3398C64.7422 35.2343 66.3833 35.7391 68.0707 35.804C69.7581 35.8689 71.4332 35.4917 72.9299 34.7098C74.3464 34.0355 75.5569 32.9948 76.436 31.6955C77.3151 30.3962 77.8309 28.8854 77.9299 27.3198C77.9447 27.0667 77.9447 26.8129 77.9299 26.5598C77.9455 26.32 77.9455 26.0795 77.9299 25.8398C77.8615 24.861 77.6282 23.9008 77.2399 22.9998C76.4181 20.994 74.9173 19.3409 72.9999 18.3298C71.5224 17.5248 69.8647 17.108 68.1822 17.1185C66.4996 17.129 64.8473 17.5664 63.3799 18.3898L62.8499 17.4698L62.3499 16.5498L60.8399 13.8998L60.3399 13.0098L59.8399 12.0898C62.3808 10.7001 65.2275 9.96421 68.1236 9.9485C71.0196 9.93279 73.8741 10.6377 76.4299 11.9998C78.891 13.3047 80.9776 15.2171 82.4915 17.5554C84.0054 19.8937 84.8965 22.5802 85.0799 25.3598C85.1213 25.7584 85.138 26.1591 85.1299 26.5598Z" fill="url(#paint5_linear_847_6366)"/>
</g>
<defs>
<linearGradient id="paint0_linear_847_6366" x1="0" y1="21.165" x2="26.76" y2="21.165" gradientUnits="userSpaceOnUse">
<stop stop-color="#0D645D"/>
<stop offset="1" stop-color="#4AB493"/>
</linearGradient>
<linearGradient id="paint1_linear_847_6366" x1="89.5" y1="31.6641" x2="118.312" y2="31.6641" gradientUnits="userSpaceOnUse">
<stop stop-color="#0D645D"/>
<stop offset="1" stop-color="#4AB493"/>
</linearGradient>
<linearGradient id="paint2_linear_847_6366" x1="120.666" y1="26.377" x2="149.5" y2="26.377" gradientUnits="userSpaceOnUse">
<stop stop-color="#0D645D"/>
<stop offset="1" stop-color="#4AB493"/>
</linearGradient>
<linearGradient id="paint3_linear_847_6366" x1="151.867" y1="26.356" x2="176.691" y2="26.356" gradientUnits="userSpaceOnUse">
<stop stop-color="#0D645D"/>
<stop offset="1" stop-color="#4AB493"/>
</linearGradient>
<linearGradient id="paint4_linear_847_6366" x1="25.7598" y1="26.5178" x2="63.2398" y2="26.5178" gradientUnits="userSpaceOnUse">
<stop stop-color="#0D645D"/>
<stop offset="1" stop-color="#4AB493"/>
</linearGradient>
<linearGradient id="paint5_linear_847_6366" x1="47.6699" y1="26.469" x2="85.1486" y2="26.469" gradientUnits="userSpaceOnUse">
<stop stop-color="#0D645D"/>
<stop offset="1" stop-color="#4AB493"/>
</linearGradient>
<clipPath id="clip0_847_6366">
<rect width="176.73" height="53.63" fill="white"/>
</clipPath>
</defs>
</svg>
