<svg width="177" height="54" viewBox="0 0 177 54" fill="none" xmlns="http://www.w3.org/2000/svg">
<g clip-path="url(#clip0_294_4042)">
<path d="M26.76 42.33H0V0H7.7V35.67H20.1C20.9746 35.67 21.8406 35.8423 22.6487 36.177C23.4567 36.5117 24.1909 37.0022 24.8093 37.6207C25.4278 38.2391 25.9183 38.9733 26.253 39.7813C26.5877 40.5894 26.76 41.4554 26.76 42.33Z" fill="url(#paint0_linear_294_4042)"/>
<path d="M118.31 26.3899C118.316 28.6674 117.979 30.9328 117.31 33.1099C116.747 35.0176 115.824 36.7998 114.59 38.3599C113.406 39.8356 111.887 41.0079 110.16 41.7799C108.274 42.6236 106.226 43.0435 104.16 43.0099C102.755 43.0201 101.354 42.835 100 42.4599C98.9219 42.1635 97.8792 41.7511 96.89 41.2299V46.2299C96.89 48.1898 96.1114 50.0695 94.7255 51.4554C93.3396 52.8413 91.46 53.6199 89.5 53.6199V16.8199C89.4996 15.2466 90.057 13.7242 91.0732 12.5231C92.0893 11.322 93.4984 10.5201 95.05 10.2599C97.3645 9.88682 99.7056 9.70288 102.05 9.70988C104.362 9.67515 106.661 10.0684 108.83 10.8699C110.75 11.6005 112.489 12.7363 113.93 14.1999C115.37 15.7043 116.474 17.4971 117.17 19.4599C117.954 21.6849 118.34 24.0308 118.31 26.3899ZM110.73 26.5099C110.73 23.2099 109.99 20.6499 108.5 18.8099C107.01 16.9699 104.62 16.0699 101.33 16.0699C100.63 16.0699 99.91 16.0699 99.16 16.1599C98.406 16.2193 97.6594 16.3499 96.93 16.5499V34.8199C97.7371 35.3443 98.6073 35.7643 99.52 36.0699C100.627 36.4628 101.795 36.6591 102.97 36.6499C105.66 36.6499 107.63 35.7399 108.87 33.8999C110.214 31.6777 110.862 29.1037 110.73 26.5099Z" fill="url(#paint1_linear_294_4042)"/>
<path d="M120.67 26.5101C120.622 23.9903 121.046 21.4838 121.92 19.1201C122.665 17.1517 123.798 15.3529 125.25 13.8301C126.595 12.4536 128.213 11.3737 130 10.6601C131.745 9.95725 133.609 9.59408 135.49 9.59009C139.89 9.59009 143.324 10.9534 145.79 13.6801C148.257 16.4068 149.494 20.4801 149.5 25.9001C149.5 26.3134 149.5 26.7734 149.5 27.2801C149.5 27.7901 149.45 28.2801 149.41 28.6501H128.31C128.339 29.7804 128.593 30.8937 129.058 31.9242C129.524 32.9546 130.191 33.8815 131.02 34.6501C132.627 36.0501 134.96 36.7501 138.02 36.7501C139.673 36.7657 141.323 36.6014 142.94 36.2601C144.137 36.0308 145.312 35.6962 146.45 35.2601L147.45 41.2601C146.907 41.5188 146.346 41.7361 145.77 41.9101C145.05 42.1301 144.24 42.3301 143.32 42.5201C142.4 42.7101 141.42 42.8501 140.32 42.9701C139.245 43.0993 138.163 43.1628 137.08 43.1601C134.58 43.2125 132.092 42.7883 129.75 41.9101C127.796 41.1544 126.041 39.9604 124.62 38.4201C123.255 36.9058 122.232 35.1152 121.62 33.1701C120.956 31.0137 120.635 28.7662 120.67 26.5101ZM142.11 23.2101C142.116 22.2271 141.971 21.249 141.68 20.3101C141.425 19.4419 141 18.6329 140.43 17.9301C139.885 17.2626 139.203 16.7203 138.43 16.3401C137.54 15.9321 136.569 15.7337 135.59 15.7601C134.554 15.736 133.526 15.9552 132.59 16.4001C131.763 16.8114 131.026 17.3824 130.42 18.0801C129.807 18.7811 129.326 19.5875 129 20.4601C128.675 21.3489 128.45 22.2713 128.33 23.2101H142.11Z" fill="url(#paint2_linear_294_4042)"/>
<path d="M151.87 26.39C151.85 24.1329 152.222 21.8895 152.97 19.76C153.652 17.7862 154.719 15.9677 156.11 14.41C157.509 12.8912 159.213 11.6849 161.11 10.87C163.198 9.99184 165.445 9.55601 167.71 9.58998C170.641 9.57462 173.546 10.1352 176.26 11.24L174.67 17.24C173.733 16.8461 172.763 16.5382 171.77 16.32C170.629 16.0813 169.465 15.974 168.3 16C167.066 15.9179 165.83 16.1194 164.686 16.5892C163.542 17.0589 162.52 17.7844 161.7 18.71C160.193 20.5233 159.44 23.08 159.44 26.38C159.289 29.062 160.043 31.717 161.58 33.92C163.01 35.78 165.41 36.7 168.79 36.7C170.039 36.701 171.285 36.5805 172.51 36.34C173.597 36.1352 174.662 35.8271 175.69 35.42L176.69 41.53C175.507 42.0488 174.264 42.4183 172.99 42.63C171.31 42.9612 169.602 43.1253 167.89 43.12C165.461 43.1729 163.045 42.7482 160.78 41.87C158.869 41.1038 157.158 39.9099 155.78 38.38C154.41 36.8461 153.387 35.035 152.78 33.07C152.137 30.9029 151.83 28.6501 151.87 26.39Z" fill="url(#paint3_linear_294_4042)"/>
<path d="M63.2398 19.8999L61.7098 20.7599C60 21.712 58.0673 22.1908 56.1108 22.1469C54.1543 22.1029 52.245 21.5378 50.5798 20.5099L47.5798 18.6099C46.1511 17.7074 44.5104 17.1964 42.8219 17.1279C41.1335 17.0595 39.4568 17.436 37.9598 18.2199C36.0465 19.1497 34.531 20.7361 33.6898 22.6899C33.2816 23.6229 33.0477 24.6227 32.9998 25.6399C32.9852 25.883 32.9852 26.1268 32.9998 26.3699C32.9848 26.6197 32.9848 26.8701 32.9998 27.1199C33.0987 28.6818 33.6002 30.1915 34.4553 31.5022C35.3104 32.8129 36.4901 33.8801 37.8798 34.5999C39.3573 35.4049 41.015 35.8217 42.6975 35.8112C44.3801 35.8007 46.0324 35.3633 47.4998 34.5399L47.9998 35.4599L48.5298 36.3799L49.9998 38.9999L50.5298 39.9199L51.0298 40.8099C48.4713 42.2598 45.5805 43.0213 42.6398 43.0199C39.775 43.0072 36.958 42.2858 34.4398 40.9199C31.9827 39.6147 29.8972 37.7069 28.379 35.3754C26.8608 33.0438 25.9596 30.365 25.7598 27.5899C25.7598 27.1699 25.7598 26.7599 25.7598 26.3399C25.7598 25.9199 25.7598 25.5299 25.7598 25.1099C25.8403 24.0598 26.0144 23.019 26.2798 21.9999C27.2052 18.6198 29.2148 15.6371 31.9998 13.5099L32.2998 13.2899C34.345 11.7709 36.713 10.7443 39.2198 10.2899C43.6528 9.50265 48.2194 10.4246 51.9998 12.8699L63.2398 19.8999Z" fill="url(#paint4_linear_294_4042)"/>
<path d="M85.1299 26.56C85.1549 26.9797 85.1549 27.4004 85.1299 27.82C85.071 28.8745 84.9034 29.92 84.6299 30.94C83.7212 34.3121 81.7289 37.2918 78.9599 39.42L78.6599 39.64C76.6203 41.1824 74.2522 42.233 71.7399 42.71C67.2815 43.5159 62.6842 42.5663 58.9099 40.06L47.6699 33.06L49.1999 32.17C50.906 31.2139 52.8382 30.7352 54.7934 30.7845C56.7485 30.8338 58.6542 31.4091 60.3099 32.45L63.3099 34.34C64.7422 35.2346 66.3833 35.7393 68.0707 35.8042C69.7581 35.8691 71.4332 35.4919 72.9299 34.71C74.3464 34.0357 75.5569 32.995 76.436 31.6957C77.3151 30.3964 77.8309 28.8857 77.9299 27.32C77.9447 27.0669 77.9447 26.8132 77.9299 26.56C77.9455 26.3203 77.9455 26.0798 77.9299 25.84C77.8615 24.8613 77.6282 23.9011 77.2399 23C76.4181 20.9942 74.9173 19.3412 72.9999 18.33C71.5224 17.525 69.8647 17.1082 68.1822 17.1187C66.4996 17.1292 64.8473 17.5666 63.3799 18.39L62.8499 17.47L62.3499 16.55L60.8399 13.9L60.3399 13.01L59.8399 12.09C62.3808 10.7003 65.2275 9.96445 68.1236 9.94874C71.0196 9.93303 73.8741 10.638 76.4299 12C78.891 13.305 80.9776 15.2174 82.4915 17.5557C84.0054 19.894 84.8965 22.5805 85.0799 25.36C85.1213 25.7586 85.138 26.1594 85.1299 26.56Z" fill="url(#paint5_linear_294_4042)"/>
</g>
<defs>
<linearGradient id="paint0_linear_294_4042" x1="13.38" y1="0" x2="13.38" y2="42.33" gradientUnits="userSpaceOnUse">
<stop stop-color="#5F90B3"/>
<stop offset="1" stop-color="#2D32A4"/>
</linearGradient>
<linearGradient id="paint1_linear_294_4042" x1="103.906" y1="9.70776" x2="103.906" y2="53.6199" gradientUnits="userSpaceOnUse">
<stop stop-color="#5F90B3"/>
<stop offset="1" stop-color="#2D32A4"/>
</linearGradient>
<linearGradient id="paint2_linear_294_4042" x1="135.083" y1="9.59009" x2="135.083" y2="43.1644" gradientUnits="userSpaceOnUse">
<stop stop-color="#5F90B3"/>
<stop offset="1" stop-color="#2D32A4"/>
</linearGradient>
<linearGradient id="paint3_linear_294_4042" x1="164.278" y1="9.58813" x2="164.278" y2="43.1244" gradientUnits="userSpaceOnUse">
<stop stop-color="#5F90B3"/>
<stop offset="1" stop-color="#2D32A4"/>
</linearGradient>
<linearGradient id="paint4_linear_294_4042" x1="44.4998" y1="10.0156" x2="44.4998" y2="43.0199" gradientUnits="userSpaceOnUse">
<stop stop-color="#5F90B3"/>
<stop offset="1" stop-color="#2D32A4"/>
</linearGradient>
<linearGradient id="paint5_linear_294_4042" x1="66.4093" y1="9.94849" x2="66.4093" y2="42.9899" gradientUnits="userSpaceOnUse">
<stop stop-color="#5F90B3"/>
<stop offset="1" stop-color="#2D32A4"/>
</linearGradient>
<clipPath id="clip0_294_4042">
<rect width="176.73" height="53.63" fill="white"/>
</clipPath>
</defs>
</svg>
